<?xml version="1.0" standalone="no"?>
<svg viewBox="0 0 200 200" xmlns="http://www.w3.org/2000/svg">
  <path fill="#0F62FE" d="M33.9,-57.8C45,-52.4,55.7,-45.3,63.4,-35.5C71.1,-25.6,75.8,-12.8,72.4,-2C68.9,8.8,57.3,17.6,48.1,25C39,32.4,32.3,38.4,24.7,44.2C17.1,50,8.5,55.7,-0.5,56.6C-9.6,57.5,-19.1,53.6,-33.3,51.6C-47.4,49.5,-66.2,49.3,-73.8,41C-81.5,32.7,-78.2,16.3,-74.5,2.1C-70.8,-12.1,-66.9,-24.2,-60.9,-35.5C-54.9,-46.8,-47,-57.2,-36.5,-63C-26.1,-68.7,-13,-69.8,-0.8,-68.4C11.4,-67,22.8,-63.2,33.9,-57.8Z" transform="translate(100 100)" />
</svg>
