<?xml version="1.0" standalone="no"?>
<svg viewBox="0 0 212 165" xmlns="http://www.w3.org/2000/svg">
  <path fill="#8A3FFC" d="M39,-67.9C51.1,-60.7,61.6,-51.2,70.7,-39.5C79.8,-27.8,87.5,-13.9,89,0.9C90.5,15.7,86,31.3,77,43.3C68.1,55.2,54.7,63.4,41.2,70.2C27.6,77,13.8,82.3,-0.8,83.8C-15.5,85.3,-31,82.9,-43.5,75.5C-56,68.1,-65.6,55.8,-71.9,42.3C-78.1,28.9,-81,14.5,-79.8,0.7C-78.6,-13.1,-73.2,-26.1,-66.4,-38.5C-59.5,-50.8,-51.2,-62.5,-39.8,-70.2C-28.5,-77.9,-14.3,-81.6,-0.4,-80.9C13.5,-80.3,27,-75.2,39,-67.9Z" transform="translate(100 81)" />
</svg>
