<?xml version="1.0" standalone="no"?>
<svg viewBox="0 0 200 148" xmlns="http://www.w3.org/2000/svg">
  <path fill="#FF0066" d="M36.2,-63.7C46.3,-56.7,53.7,-46,63.6,-34.7C73.5,-23.5,85.9,-11.7,89.1,1.8C92.3,15.4,86.2,30.9,75.2,40.1C64.1,49.3,48,52.3,34.6,57.6C21.3,62.9,10.6,70.4,-1.1,72.3C-12.8,74.2,-25.6,70.4,-39.6,65.5C-53.6,60.5,-68.7,54.5,-74.7,43.4C-80.8,32.3,-77.7,16.1,-76.2,0.9C-74.7,-14.4,-74.7,-28.8,-69.2,-40.7C-63.7,-52.7,-52.5,-62.2,-40,-67.8C-27.6,-73.4,-13.8,-75.1,-0.4,-74.4C13,-73.7,26,-70.6,36.2,-63.7Z" transform="translate(100 75)" />
</svg>
