<?xml version="1.0" standalone="no"?>
<svg viewBox="0 0 210 159" xmlns="http://www.w3.org/2000/svg">
  <path fill="#08BDBA" d="M33.7,-57.6C46.5,-51,61.6,-47.6,71.3,-38.6C81,-29.5,85.2,-14.8,86.8,0.9C88.4,16.6,87.2,33.1,77.6,42.2C67.9,51.4,49.8,53.1,35.4,58.8C21.1,64.6,10.5,74.4,-1.5,77C-13.6,79.7,-27.3,75.3,-39.6,68.4C-51.9,61.4,-62.8,52,-71.4,40.2C-80.1,28.4,-86.4,14.2,-84.6,1C-82.9,-12.1,-72.9,-24.3,-65,-37.4C-57.2,-50.5,-51.3,-64.6,-40.8,-72.6C-30.3,-80.6,-15.2,-82.4,-2.4,-78.3C10.5,-74.2,20.9,-64.3,33.7,-57.6Z" transform="translate(100 81)" />
</svg>
