<?xml version="1.0" standalone="no"?>
<svg viewBox="0 0 200 151" xmlns="http://www.w3.org/2000/svg">
  <path fill="#0F62FE" d="M37.6,-63.8C49.1,-58.4,59.2,-49.2,67.6,-37.9C76,-26.6,82.8,-13.3,80.3,-1.4C77.9,10.5,66.2,21,56.9,30.7C47.6,40.4,40.6,49.3,31.5,59.4C22.4,69.6,11.2,80.9,0.5,80C-10.2,79.1,-20.4,66,-32.7,57.8C-45.1,49.6,-59.6,46.2,-71.2,37.4C-82.8,28.5,-91.4,14.3,-89.7,0.9C-88.1,-12.4,-76.3,-24.8,-66.2,-36.2C-56.1,-47.5,-47.7,-57.8,-37,-63.6C-26.2,-69.4,-13.1,-70.6,0,-70.5C13,-70.5,26.1,-69.1,37.6,-63.8Z" transform="translate(100 71)" />
</svg>
