<?xml version="1.0" standalone="no"?>
<svg viewBox="0 0 200 131" xmlns="http://www.w3.org/2000/svg">
  <path fill="#FA4D56" d="M41.3,-66.5C54.6,-63.7,67.3,-55,73.7,-42.9C80.1,-30.8,80.2,-15.4,76.7,-2C73.2,11.3,66,22.7,59.5,34.5C52.9,46.3,46.9,58.6,37.1,62.1C27.3,65.5,13.6,60.1,1.3,57.9C-11.1,55.6,-22.1,56.5,-35.1,54.9C-48.1,53.3,-63.1,49.2,-73.3,39.6C-83.5,30,-88.9,15,-86.4,1.5C-83.9,-12.1,-73.4,-24.2,-64.2,-35.5C-54.9,-46.7,-47,-57.1,-36.5,-61.5C-26,-66,-13,-64.4,0.5,-65.3C14,-66.1,27.9,-69.3,41.3,-66.5Z" transform="translate(100 68)" />
</svg>
